<svg xmlns="http://www.w3.org/2000/svg" viewBox="0 0 32 32" width="32" height="32">
  <defs>
    <linearGradient id="grad" x1="0%" y1="0%" x2="100%" y2="100%">
      <stop offset="0%" stop-color="#4f46e5" />
      <stop offset="100%" stop-color="#7c3aed" />
    </linearGradient>
  </defs>
  <rect width="32" height="32" rx="8" fill="url(#grad)" />
  <path d="M27 14.5a0.5 0.5 0 0 0 0-.9l-10.5-5a1 1 0 0 0-1 0l-10.5 5a0.5 0.5 0 0 0 0 .9l10.5 5a1 1 0 0 0 1 0z" fill="#ffffff" />
  <path d="M10 16.5v4c0 1.5 1.5 2.5 6 2.5s6-1 6-2.5v-4" fill="none" stroke="#ffffff" stroke-width="2" stroke-linecap="round" stroke-linejoin="round" />
  <path d="M26 15v4.5" fill="none" stroke="#ffffff" stroke-width="1.5" stroke-linecap="round" stroke-linejoin="round" />
  <circle cx="26" cy="20" r="1" fill="#ffffff" />
</svg>
